<svg xmlns="http://www.w3.org/2000/svg" width="600" height="400" viewBox="0 0 600 400"><rect width="100%" height="100%" fill="#DDDDDD"/><path fill="#999999" d="M144.975 181.925h-17.33v10.82h13.66v5.59h-13.66v11.05h17.33v5.8h-24.62v-39.04h24.62zm20.63 18.68 9.48 14.58h-6.43q-.73 0-1.17-.38-.45-.38-.75-.86l-5.85-9.64q-.14.46-.32.86-.17.41-.39.76l-5.18 8.02q-.3.46-.73.85t-1.08.39h-5.97l9.51-14.28-9.13-13.42h6.43q.73 0 1.08.2t.62.66l5.8 9.24q.3-.92.84-1.81l4.67-7.29q.6-1 1.54-1h6.13zm18.2-2.46h12.58q0-1.29-.36-2.44-.37-1.15-1.1-2.01-.73-.87-1.85-1.37t-2.6-.5q-2.89 0-4.55 1.65t-2.12 4.67m17.01 4.03h-17.15q.17 2.13.76 3.68t1.57 2.57q.97 1.01 2.3 1.51 1.34.5 2.96.5t2.79-.38q1.18-.38 2.06-.84.87-.46 1.54-.83.66-.38 1.28-.38.84 0 1.24.62l1.92 2.43q-1.11 1.3-2.49 2.17-1.37.88-2.87 1.41-1.5.52-3.05.74-1.56.21-3.01.21-2.89 0-5.38-.95-2.48-.96-4.32-2.84-1.83-1.87-2.89-4.64-1.05-2.77-1.05-6.42 0-2.83.92-5.33.92-2.49 2.63-4.34 1.72-1.85 4.19-2.93t5.57-1.08q2.62 0 4.84.83 2.21.84 3.8 2.45 1.6 1.6 2.5 3.94.9 2.33.9 5.33 0 1.51-.32 2.04t-1.24.53m13.23 13.01h-6.67v-27.7h4.08q1.29 0 1.7 1.21l.43 2.06q.73-.82 1.52-1.49.8-.67 1.71-1.16.9-.49 1.94-.77t2.28-.28q2.62 0 4.31 1.41 1.69 1.42 2.52 3.77.65-1.38 1.62-2.36.97-.99 2.14-1.61 1.16-.62 2.47-.92 1.31-.29 2.63-.29 2.29 0 4.08.7 1.78.7 2.99 2.05 1.22 1.35 1.85 3.29.64 1.95.64 4.46v17.63h-6.67v-17.63q0-2.65-1.16-3.98-1.16-1.34-3.41-1.34-1.02 0-1.9.35t-1.54 1.01-1.04 1.66-.38 2.3v17.63h-6.69v-17.63q0-2.78-1.12-4.05t-3.28-1.27q-1.46 0-2.72.72-1.25.71-2.33 1.95zm45.22-19.6v12.42q1.14 1.38 2.47 1.94 1.34.57 2.91.57 1.51 0 2.72-.57 1.22-.56 2.07-1.73.85-1.16 1.31-2.93.46-1.76.46-4.17 0-2.43-.39-4.11-.4-1.69-1.12-2.75-.73-1.05-1.77-1.53-1.04-.49-2.37-.49-2.07 0-3.53.88-1.46.87-2.76 2.47m-.89-6.89.54 2.57q1.7-1.92 3.86-3.11 2.16-1.18 5.08-1.18 2.27 0 4.14.94 1.88.95 3.24 2.74 1.37 1.8 2.11 4.43t.74 6.03q0 3.11-.83 5.75-.84 2.65-2.39 4.59-1.56 1.95-3.76 3.04t-4.92 1.09q-2.33 0-3.97-.71-1.65-.72-2.95-1.98v11.33h-6.67v-36.74h4.08q1.3 0 1.7 1.21m24.98-13.63h6.67v40.12h-6.67zm18.6 23.08h12.58q0-1.29-.36-2.44-.37-1.15-1.1-2.01-.72-.87-1.85-1.37-1.12-.5-2.6-.5-2.89 0-4.55 1.65t-2.12 4.67m17.01 4.03h-17.14q.16 2.13.75 3.68.6 1.55 1.57 2.57.97 1.01 2.31 1.51 1.33.5 2.95.5t2.8-.38q1.17-.38 2.05-.84t1.54-.83q.66-.38 1.28-.38.84 0 1.24.62l1.92 2.43q-1.11 1.3-2.48 2.17-1.38.88-2.88 1.41-1.5.52-3.05.74-1.55.21-3.01.21-2.89 0-5.37-.95-2.49-.96-4.32-2.84-1.84-1.87-2.89-4.64-1.06-2.77-1.06-6.42 0-2.83.92-5.33.92-2.49 2.63-4.34 1.72-1.85 4.19-2.93t5.57-1.08q2.62 0 4.84.83 2.21.84 3.8 2.45 1.6 1.6 2.5 3.94.91 2.33.91 5.33 0 1.51-.33 2.04-.32.53-1.24.53m28.03-26.03v39.04h-7.29v-39.04zm14.33 39.04h-6.67v-27.7h4.08q1.3 0 1.7 1.21l.43 2.06q.73-.82 1.53-1.49t1.7-1.16q.91-.49 1.94-.77 1.04-.28 2.29-.28 2.62 0 4.3 1.41 1.69 1.42 2.53 3.77.65-1.38 1.62-2.36.97-.99 2.13-1.61t2.47-.92q1.31-.29 2.63-.29 2.3 0 4.08.7t3 2.05q1.21 1.35 1.85 3.29.63 1.95.63 4.46v17.63h-6.67v-17.63q0-2.65-1.16-3.98-1.16-1.34-3.4-1.34-1.03 0-1.9.35-.88.35-1.54 1.01t-1.04 1.66-.38 2.3v17.63h-6.7v-17.63q0-2.78-1.12-4.05t-3.28-1.27q-1.46 0-2.71.72-1.26.71-2.34 1.95zm53.19-7.16v-4.67q-2.89.14-4.86.5-1.97.37-3.16.94-1.18.56-1.7 1.32-.51.75-.51 1.65 0 1.75 1.04 2.51 1.04.75 2.71.75 2.06 0 3.55-.74 1.5-.74 2.93-2.26m-14.09-14.55-1.19-2.13q4.78-4.37 11.5-4.37 2.43 0 4.35.79 1.92.8 3.24 2.22 1.32 1.41 2.01 3.38.69 1.98.69 4.32v17.5h-3.02q-.95 0-1.46-.28-.51-.29-.81-1.15l-.6-2q-1.05.95-2.05 1.66-1 .72-2.08 1.2-1.08.49-2.31.75-1.22.25-2.71.25-1.75 0-3.24-.47-1.48-.47-2.56-1.42-1.08-.94-1.68-2.35-.59-1.4-.59-3.26 0-1.06.35-2.1t1.15-1.98q.79-.95 2.06-1.78 1.27-.84 3.12-1.46t4.31-1.01q2.45-.39 5.61-.48v-1.62q0-2.78-1.18-4.11-1.19-1.34-3.43-1.34-1.62 0-2.69.38t-1.88.85-1.47.85-1.47.38q-.7 0-1.19-.37-.48-.36-.78-.85m36.99 7.18q1.24 0 2.16-.33.92-.34 1.52-.93.61-.6.92-1.44.31-.83.31-1.83 0-2.05-1.23-3.26-1.22-1.2-3.68-1.2t-3.69 1.2q-1.22 1.21-1.22 3.26 0 .97.31 1.81.31.83.91 1.44.61.61 1.54.95.93.33 2.15.33m7.53 15.77q0-.81-.48-1.32-.49-.51-1.33-.8-.83-.28-1.95-.42-1.12-.13-2.38-.2t-2.59-.12q-1.34-.05-2.61-.22-1.1.62-1.79 1.46t-.69 1.95q0 .72.36 1.36.37.63 1.16 1.09.8.46 2.07.72t3.1.26q1.87 0 3.22-.29 1.35-.28 2.22-.78.88-.5 1.29-1.19.4-.69.4-1.5m-1.32-28h7.96v2.49q0 1.18-1.43 1.45l-2.48.46q.57 1.43.57 3.14 0 2.05-.83 3.71-.82 1.66-2.28 2.82t-3.44 1.8q-1.99.63-4.28.63-.81 0-1.57-.08-.75-.08-1.48-.22-1.3.79-1.3 1.76 0 .84.77 1.23t2.04.55 2.89.2 3.32.18q1.7.13 3.32.47t2.89 1.07 2.04 1.98q.77 1.26.77 3.23 0 1.83-.91 3.56-.9 1.73-2.62 3.08-1.71 1.35-4.21 2.17-2.49.83-5.68.83-3.13 0-5.45-.61-2.33-.61-3.87-1.62-1.53-1.01-2.29-2.34-.76-1.32-.76-2.75 0-1.94 1.18-3.25 1.17-1.31 3.22-2.1-1.1-.56-1.75-1.51-.65-.94-.65-2.48 0-.62.23-1.28.23-.67.68-1.31.44-.65 1.12-1.23.67-.58 1.59-1.04-2.11-1.14-3.31-3.03t-1.2-4.42q0-2.06.82-3.72.83-1.66 2.3-2.83 1.47-1.18 3.48-1.8t4.39-.62q1.78 0 3.35.37 1.56.36 2.86 1.06m17.44 9.72h12.58q0-1.29-.36-2.44-.37-1.15-1.09-2.01-.73-.87-1.85-1.37t-2.61-.5q-2.89 0-4.55 1.65t-2.12 4.67m17.01 4.03h-17.14q.16 2.13.75 3.68.6 1.55 1.57 2.57.97 1.01 2.31 1.51 1.33.5 2.95.5t2.8-.38q1.17-.38 2.05-.84t1.54-.83q.66-.38 1.28-.38.84 0 1.24.62l1.92 2.43q-1.11 1.3-2.48 2.17-1.38.88-2.88 1.41-1.5.52-3.05.74-1.55.21-3.01.21-2.89 0-5.37-.95-2.49-.96-4.32-2.84-1.84-1.87-2.89-4.64-1.06-2.77-1.06-6.42 0-2.83.92-5.33.92-2.49 2.63-4.34 1.72-1.85 4.19-2.93t5.58-1.08q2.61 0 4.83.83 2.21.84 3.81 2.45 1.59 1.6 2.49 3.94.91 2.33.91 5.33 0 1.51-.33 2.04-.32.53-1.24.53"/></svg>